# Blender v2.74 (sub 0) OBJ File: 'enclosureA0.blend'
# www.blender.org
mtllib enclosureA0.mtl
o Cylinder.008
v 0.195090 0.000000 0.980785
v 0.195090 2.000000 0.980785
v -0.000000 0.000000 1.000000
v -0.000000 2.000000 1.000000
v -0.195091 0.000000 0.980785
v -0.195091 2.000000 0.980785
v 0.183603 1.941118 0.923035
v 0.183603 0.058882 0.923035
v -0.000000 0.058882 0.941119
v -0.000000 1.941118 0.941119
v -0.183603 0.058882 0.923035
v -0.183603 1.941118 0.923035
vn 0.098000 0.000000 0.995200
vn -0.098000 0.000000 0.995200
vn -0.098000 0.000000 -0.995200
vn 0.098000 0.000000 -0.995200
vn -0.069500 -0.705400 -0.705400
vn -0.069500 0.705400 -0.705400
vn 0.069500 -0.705400 -0.705400
vn 0.069500 0.705400 -0.705400
vn -0.980800 0.000000 -0.195100
vn 0.980800 0.000000 -0.195100
usemtl None
s off
f 1//1 2//1 4//1 3//1
f 3//2 4//2 6//2 5//2
f 8//3 9//3 10//3 7//3
f 9//4 11//4 12//4 10//4
f 3//5 9//5 8//5 1//5
f 2//6 7//6 10//6 4//6
f 5//7 11//7 9//7 3//7
f 4//8 10//8 12//8 6//8
f 6//9 12//9 11//9 5//9
f 1//10 8//10 7//10 2//10
